<?xml version="1.0" encoding="utf-8"?>
<!-- Generator: Adobe Illustrator 16.0.0, SVG Export Plug-In . SVG Version: 6.00 Build 0)  -->
<!DOCTYPE svg PUBLIC "-//W3C//DTD SVG 1.1//EN" "http://www.w3.org/Graphics/SVG/1.1/DTD/svg11.dtd">
<svg version="1.1" id="Layer_1" xmlns="http://www.w3.org/2000/svg" x="0px" y="0px"
     width="1609px" height="318px" viewBox="0 0 1609 318" enable-background="new 0 0 1609 318" xml:space="preserve">
<g enable-background="new    ">
	<path d="M408.227,135.338V29.033h42.714c21.355,0,33.311,14.662,33.311,32.034S471.98,93.102,450.94,93.102h-29.484v42.235
		L408.227,135.338L408.227,135.338z M470.544,61.067c0-11.953-8.606-20.24-21.198-20.24h-27.891v40.481h27.891
		C461.938,81.309,470.544,73.021,470.544,61.067z"/>
    <path d="M499.227,39.393c0-4.463,3.666-8.129,7.97-8.129c4.463,0,8.128,3.666,8.128,8.129c0,4.462-3.666,7.969-8.128,7.969
		C502.893,47.361,499.227,43.854,499.227,39.393z M501.298,135.338v-76.98h11.954v76.979L501.298,135.338L501.298,135.338z"/>
    <path
        d="M557.715,135.338l-32.035-76.98h12.91l25.66,63.113l25.5-63.113h13.069l-32.035,76.979L557.715,135.338L557.715,135.338z"
    />
    <path d="M610.783,96.769c0-22.313,14.663-40.323,38.091-40.323s38.091,18.01,38.091,40.323c0,22.312-14.663,40.48-38.091,40.48
		S610.783,119.081,610.783,96.769z M674.375,96.769c0-15.619-9.084-29.646-25.5-29.646s-25.66,14.025-25.66,29.646
		c0,15.778,9.244,29.804,25.66,29.804S674.375,112.547,674.375,96.769z"/>
    <path d="M708.795,119.24V68.878h-12.75v-10.52h12.75V37.32h11.953v21.038h15.619v10.52h-15.619v47.812
		c0,5.738,2.55,9.882,7.81,9.882c3.349,0,6.535-1.435,8.128-3.188l3.506,8.925c-3.026,2.869-7.33,4.939-14.344,4.939
		C714.533,137.249,708.795,130.716,708.795,119.24z"/>
    <path d="M801.39,135.338v-8.767c-6.375,7.014-15.141,10.678-25.5,10.678c-13.067,0-26.935-8.766-26.935-25.5
		c0-17.213,13.866-25.341,26.935-25.341c10.521,0,19.285,3.348,25.5,10.52V83.062c0-10.359-8.288-16.256-19.442-16.256
		c-9.244,0-16.735,3.347-23.588,10.678l-5.578-8.287c8.288-8.605,18.169-12.751,30.76-12.751c16.256,0,29.804,7.332,29.804,25.979
		v52.913H801.39L801.39,135.338z M801.39,119.081v-14.503c-4.622-6.375-12.75-9.562-21.195-9.562
		c-11.156,0-18.968,7.013-18.968,16.894c0,9.724,7.812,16.734,18.968,16.734C788.64,128.644,796.768,125.456,801.39,119.081z"/>
    <path d="M837.246,135.338V29.033h11.953v106.306L837.246,135.338L837.246,135.338z"/>
    <path d="M995.98,135.338L972.55,49.593l-23.429,85.745h-14.344l-30.28-106.306h14.662l23.588,88.613l24.385-88.613h10.997
		l24.386,88.613l23.43-88.613h14.661l-30.28,106.306H995.98z"/>
    <path d="M1044.107,96.769c0-22.313,14.662-40.323,38.092-40.323c23.428,0,38.091,18.01,38.091,40.323
		c0,22.312-14.663,40.48-38.091,40.48C1058.77,137.249,1044.107,119.081,1044.107,96.769z M1107.699,96.769
		c0-15.619-9.084-29.646-25.5-29.646s-25.66,14.025-25.66,29.646c0,15.778,9.244,29.804,25.66,29.804
		S1107.699,112.547,1107.699,96.769z"/>
    <path d="M1139.729,135.338v-76.98h11.953V70.79c6.219-8.129,15.144-14.024,25.66-14.024v12.271
		c-1.434-0.318-2.869-0.479-4.781-0.479c-7.332,0-17.37,6.057-20.879,12.271v54.508L1139.729,135.338L1139.729,135.338z"/>
    <path d="M1244.754,135.338l-27.729-34.585l-12.75,12.591v21.994h-11.954V29.033h11.954v70.285l40.479-40.96h15.143l-34.105,34.903
		l34.266,42.076L1244.754,135.338L1244.754,135.338z"/>
    <path d="M1267.541,125.138l6.215-8.606c5.103,5.897,14.822,10.997,25.342,10.997c11.794,0,18.169-5.578,18.169-13.229
		c0-18.647-47.651-7.172-47.651-35.7c0-11.954,10.357-22.154,28.688-22.154c13.068,0,22.312,4.941,28.529,11.157l-5.579,8.287
		c-4.622-5.578-13.067-9.722-22.95-9.722c-10.52,0-17.054,5.26-17.054,12.111c0,16.896,47.654,5.738,47.654,35.701
		c0,12.909-10.36,23.27-30.282,23.27C1286.029,137.249,1275.35,133.426,1267.541,125.138z"/>
    <path d="M1400.459,135.338V84.655c0-13.547-7.014-17.531-17.373-17.531c-9.244,0-18.17,5.737-22.791,11.953v56.262h-11.953V29.033
		h11.953v40.481c5.418-6.375,15.938-13.069,27.572-13.069c16.098,0,24.545,7.811,24.545,24.545v54.349L1400.459,135.338
		L1400.459,135.338z"/>
    <path d="M1431.85,96.769c0-22.313,14.662-40.323,38.093-40.323c23.429,0,38.093,18.01,38.093,40.323
		c0,22.312-14.664,40.48-38.093,40.48C1446.512,137.249,1431.85,119.081,1431.85,96.769z M1495.441,96.769
		c0-15.619-9.084-29.646-25.5-29.646s-25.66,14.025-25.66,29.646c0,15.778,9.244,29.804,25.66,29.804
		S1495.441,112.547,1495.441,96.769z"/>
    <path d="M1539.424,123.703v40.96h-11.953V58.358h11.953v11.477c5.58-7.811,15.143-13.39,25.98-13.39
		c20.24,0,34.266,15.301,34.266,40.323c0,24.863-14.025,40.48-34.266,40.48C1554.885,137.249,1545.641,132.31,1539.424,123.703z
		 M1587.078,96.769c0-17.054-9.244-29.646-24.703-29.646c-9.402,0-18.807,5.578-22.951,12.272v34.744
		c4.145,6.693,13.549,12.432,22.951,12.432C1577.834,126.572,1587.078,113.822,1587.078,96.769z"/>
</g>
    <path fill="#00AE9E" d="M218.52,254.41c2.935-8.616-2.43-16.367-10.408-24.48c-39.37-40.287-79.978-79.29-121.824-117.011
	c-5.519-6.029-13.89-8.562-21.825-6.604C38.511,111.68,9.122,83.298,12.285,56.934c0.642-5.228,2.981-5.961,7.199-3.209
	c6.098,3.943,12.242,7.84,18.34,11.554c12.288,7.382,21.55,4.998,29.665-7.658c8.116-12.652,7.382-23.933-3.943-32.095
	c-5.501-3.989-11.371-7.519-17.148-11.095c-6.694-4.357-5.181-7.612,1.513-9.629c18.203-5.456,35.58-5.597,51.536,7.243
	C114.44,24.058,120.4,38.96,115.815,57.896c-1.67,6.241,0.379,12.887,5.273,17.104c41.953,43.557,85.832,85.004,130.49,125.723
	c4.257,4.035,10.394,5.394,15.957,3.529c31.453-6.283,52.086,20.127,54.378,47.042c0.55,6.418-1.65,8.667-7.704,4.585
	c-6.051-4.079-12.241-7.843-18.339-11.512c-11.279-6.691-19.302-4.584-27.83,6.695c-8.528,11.278-8.712,24.162,0.503,31.729
	c6.158,4.647,12.573,8.949,19.212,12.884c6.556,4.264,5.777,6.922-1.284,9.719C252.128,318.785,211.688,292.923,218.52,254.41z"/>
    <path fill="#0066AC" d="M170.652,241.893c7.779-0.021,15.51-1.226,22.925-3.576c9.904-2.338,16.689,2.615,16.139,12.842
	c-0.412,8.113,1.972,20.447-0.916,23.521c-10.454,11.096-6.42,25.949-13.068,36.68c-4.86,7.84-16.23,6.465-25.217,6.604
	c-25.494,0.412-28.474-2.106-30.812-26.775c0.05-4.619-2.901-8.737-7.291-10.178c-4.753-1.32-9.361-3.119-13.755-5.365
	c-10.82-6.924-19.715-6.647-27.509,4.586c-5.548,7.656-12.976,7.795-20.129,2.017c-6.085-4.707-11.789-9.89-17.056-15.495
	c-13.756-15.223-13.756-18.343,0.503-33.607c4.741-3.812,5.883-10.566,2.66-15.729c-2.621-4.275-4.614-8.909-5.914-13.757
	c-2.477-11.875-9.17-16.688-21.137-15.177c-10.591,1.33-16.14-4.034-16.827-14.625c-0.88-6.271-1.31-12.602-1.284-18.938
	c2.018-25.125,5.594-28.428,24.622-25.996c3.622,0.458,8.758,0,9.628-3.484c2.568-10.408,10.546-8.712,17.837-9.721
	c17.376-2.387,28.701,9.17,24.988,26.363C77.897,192.65,117.649,241.893,170.652,241.893z"/>
    <path fill="#008774" d="M327.506,159.82c0.188,6.455-0.601,12.9-2.339,19.119c-1.008,3.715-2.521,7.843-6.235,8.162
	c-19.211,1.649-37.597,10.043-56.992,8.116c-7.216-0.095-12.99-6.021-12.896-13.239c0.016-1.277,0.222-2.549,0.609-3.771
	c12.562-64.694-38.515-114.26-102.522-99.083c-9.491,2.246-12.15-3.257-16.46-7.749c-8.907-9.633-8.32-24.657,1.31-33.563
	c0.827-0.763,1.707-1.469,2.633-2.107c6.739-4.081,5.501-10.089,4.998-15.637c-1.103-12.652,4.585-18.752,16.827-19.578
	c6.738-0.812,13.537-1.014,20.312-0.596c19.165,2.153,24.896,4.355,22.557,23.658c-1.245,6.285,2.84,12.389,9.124,13.634
	c0.244,0.048,0.488,0.089,0.734,0.123c3.98,0.962,7.797,2.506,11.325,4.584c10.729,6.831,19.624,6.831,27.739-4.493
	c6.052-8.3,13.755-7.337,21.32-1.331c5.325,4.216,10.335,8.814,14.993,13.756c14.443,15.863,14.582,19.028,0.414,34.708
	c-4.545,4.02-5.585,10.703-2.476,15.911c3.145,6.503,5.886,13.195,8.207,20.036c1.316,4.928,5.723,8.398,10.819,8.528
	C326.085,131.898,327.552,133.732,327.506,159.82z"/>
    <g>
	<path d="M457.755,293.191l-27.673-36.577l-7.124,8.493v28.084h-19.453v-91.375h19.453v40.824l32.331-40.824h23.974l-36.303,42.879
		l38.769,48.496H457.755z"/>
        <path d="M532.146,293.191v-8.356c-4.521,5.068-12.466,10-23.289,10c-14.521,0-21.371-7.945-21.371-20.823v-46.988h17.398v40.139
		c0,9.18,4.795,12.193,12.192,12.193c6.712,0,12.055-3.699,15.069-7.535v-44.797h17.398v66.168H532.146z"/>
        <path d="M566.808,293.191v-91.375h17.398v33.701c5.206-6.713,12.604-10.138,20.412-10.138c16.85,0,29.316,13.151,29.316,34.796
		c0,22.057-12.604,34.659-29.316,34.659c-7.946,0-15.207-3.562-20.412-10.137v8.493H566.808z M599.139,279.355
		c10.138,0,16.85-7.672,16.85-19.18s-6.712-19.316-16.85-19.316c-5.617,0-12.055,3.289-14.932,7.672v23.426
		C587.083,276.204,593.522,279.355,599.139,279.355z"/>
        <path d="M642.843,260.039c0-19.18,14.11-34.659,34.249-34.659c19.727,0,33.152,14.795,33.152,36.44v3.836h-49.181
		c1.096,8.355,7.809,15.343,19.042,15.343c5.617,0,13.425-2.466,17.672-6.575l7.671,11.233c-6.576,6.027-16.987,9.178-27.262,9.178
		C658.049,294.835,642.843,281.273,642.843,260.039z M677.092,239.216c-10.823,0-15.48,8.083-16.302,14.659h32.604
		C692.983,247.572,688.599,239.216,677.092,239.216z"/>
        <path d="M722.851,293.191v-66.168h17.397v9.041c4.658-5.891,12.878-10.685,21.098-10.685v16.987
		c-1.233-0.274-2.877-0.411-4.795-0.411c-5.754,0-13.426,3.288-16.303,7.534v43.701H722.851z"/>
        <path d="M816.828,293.191v-40.002c0-9.179-4.794-12.33-12.192-12.33c-6.85,0-12.192,3.836-15.069,7.809v44.523h-17.397v-66.168
		h17.397v8.631c4.247-5.068,12.33-10.274,23.152-10.274c14.521,0,21.508,8.22,21.508,21.097v46.715H816.828z"/>
        <path d="M847.244,260.039c0-19.18,14.11-34.659,34.248-34.659c19.728,0,33.152,14.795,33.152,36.44v3.836h-49.181
		c1.097,8.355,7.809,15.343,19.043,15.343c5.616,0,13.425-2.466,17.672-6.575l7.672,11.233c-6.576,6.027-16.987,9.178-27.262,9.178
		C862.45,294.835,847.244,281.273,847.244,260.039z M881.492,239.216c-10.822,0-15.479,8.083-16.302,14.659h32.604
		C897.384,247.572,893,239.216,881.492,239.216z"/>
        <path d="M930.676,276.752V242.23h-10.96v-15.207h10.96V208.94h17.535v18.083h13.425v15.207h-13.425v29.863
		c0,4.11,2.191,7.262,6.027,7.262c2.603,0,5.069-0.959,6.028-1.918l3.698,13.151c-2.603,2.328-7.261,4.246-14.521,4.246
		C937.251,294.835,930.676,288.533,930.676,276.752z"/>
        <path d="M969.31,260.039c0-19.18,14.11-34.659,34.248-34.659c19.728,0,33.152,14.795,33.152,36.44v3.836h-49.181
		c1.097,8.355,7.809,15.343,19.042,15.343c5.617,0,13.426-2.466,17.673-6.575l7.672,11.233c-6.576,6.027-16.987,9.178-27.262,9.178
		C984.516,294.835,969.31,281.273,969.31,260.039z M1003.558,239.216c-10.822,0-15.479,8.083-16.302,14.659h32.604
		C1019.449,247.572,1015.065,239.216,1003.558,239.216z"/>
        <path d="M1043.562,284.561l7.534-12.192c4.795,4.521,14.658,9.042,22.878,9.042c7.535,0,11.097-3.014,11.097-7.124
		c0-10.96-39.317-2.055-39.317-28.083c0-11.097,9.727-20.823,27.125-20.823c11.233,0,20.138,3.835,26.714,9.042l-6.986,11.918
		c-3.974-4.247-11.508-7.672-19.591-7.672c-6.302,0-10.411,2.877-10.411,6.576c0,9.863,39.18,1.644,39.18,28.357
		c0,12.056-10.274,21.233-28.631,21.233C1061.646,294.835,1050.549,291,1043.562,284.561z"/>
</g>
</svg>
